<svg width="18" height="13" viewBox="0 0 18 13" fill="none" xmlns="http://www.w3.org/2000/svg">
<path d="M9.35645 8.63965V10H2.02148V8.63965H9.35645ZM2.44531 8.63965V12.4473H0.804688L0.743164 8.63965H2.44531ZM10.6826 8.63965L10.5801 12.4404H8.9668V8.63965H10.6826ZM8.15332 0.046875V1.41406H3.55957V0.046875H8.15332ZM9.46582 0.046875V10H7.75684V0.046875H9.46582ZM3.21777 0.046875H4.93359L4.69434 4.08008C4.65788 4.7181 4.5918 5.29232 4.49609 5.80273C4.40039 6.31315 4.28418 6.77116 4.14746 7.17676C4.0153 7.5778 3.86491 7.93327 3.69629 8.24316C3.52767 8.5485 3.34766 8.81283 3.15625 9.03613C2.96484 9.25944 2.76888 9.45085 2.56836 9.61035C2.3724 9.7653 2.17871 9.89518 1.9873 10H1.07129V8.63965H1.51562C1.63867 8.52572 1.77539 8.36165 1.92578 8.14746C2.07617 7.92871 2.22201 7.64388 2.36328 7.29297C2.50911 6.9375 2.63672 6.49772 2.74609 5.97363C2.85547 5.44954 2.93066 4.81836 2.97168 4.08008L3.21777 0.046875ZM15.9873 8.5166V4.98926C15.9873 4.72493 15.9395 4.49707 15.8438 4.30566C15.748 4.11426 15.6022 3.96615 15.4062 3.86133C15.2148 3.75651 14.9733 3.7041 14.6816 3.7041C14.4128 3.7041 14.1803 3.74967 13.9844 3.84082C13.7884 3.93197 13.6357 4.05501 13.5264 4.20996C13.417 4.36491 13.3623 4.54036 13.3623 4.73633H11.7217C11.7217 4.44466 11.7923 4.16211 11.9336 3.88867C12.0749 3.61523 12.2799 3.37142 12.5488 3.15723C12.8177 2.94303 13.139 2.77441 13.5127 2.65137C13.8864 2.52832 14.3057 2.4668 14.7705 2.4668C15.3265 2.4668 15.8187 2.56022 16.2471 2.74707C16.68 2.93392 17.0195 3.21647 17.2656 3.59473C17.5163 3.96842 17.6416 4.43783 17.6416 5.00293V8.29102C17.6416 8.62826 17.6644 8.93132 17.71 9.2002C17.7601 9.46452 17.8307 9.69466 17.9219 9.89062V10H16.2334C16.1559 9.82227 16.0944 9.59668 16.0488 9.32324C16.0078 9.04525 15.9873 8.77637 15.9873 8.5166ZM16.2266 5.50195L16.2402 6.52051H15.0576C14.7523 6.52051 14.4834 6.55013 14.251 6.60938C14.0186 6.66406 13.8249 6.74609 13.6699 6.85547C13.515 6.96484 13.3988 7.09701 13.3213 7.25195C13.2438 7.4069 13.2051 7.58236 13.2051 7.77832C13.2051 7.97428 13.2507 8.1543 13.3418 8.31836C13.4329 8.47786 13.5651 8.60319 13.7383 8.69434C13.916 8.78548 14.1302 8.83105 14.3809 8.83105C14.7181 8.83105 15.012 8.7627 15.2627 8.62598C15.5179 8.4847 15.7184 8.3138 15.8643 8.11328C16.0101 7.9082 16.0876 7.71452 16.0967 7.53223L16.6299 8.26367C16.5752 8.45052 16.4818 8.65104 16.3496 8.86523C16.2174 9.07943 16.0443 9.28451 15.8301 9.48047C15.6204 9.67188 15.3675 9.8291 15.0713 9.95215C14.7796 10.0752 14.4424 10.1367 14.0596 10.1367C13.5765 10.1367 13.1458 10.041 12.7676 9.84961C12.3893 9.65365 12.0931 9.3916 11.8789 9.06348C11.6647 8.73079 11.5576 8.35482 11.5576 7.93555C11.5576 7.54362 11.6305 7.19727 11.7764 6.89648C11.9268 6.59115 12.1455 6.33594 12.4326 6.13086C12.7243 5.92578 13.0798 5.77083 13.499 5.66602C13.9183 5.55664 14.3968 5.50195 14.9346 5.50195H16.2266Z" fill="white"/>
</svg>
